<svg width="16" height="16" viewBox="0 0 16 16" fill="none" xmlns="http://www.w3.org/2000/svg">
<g id="Discord - Negative">
<g id="Group 1">
<path id="Vector" d="M6.68004 6.79248C6.25254 6.79248 5.91504 7.16748 5.91504 7.62498C5.91504 8.08248 6.26004 8.45748 6.68004 8.45748C7.10754 8.45748 7.44504 8.08248 7.44504 7.62498C7.45254 7.16748 7.10754 6.79248 6.68004 6.79248ZM9.41754 6.79248C8.99004 6.79248 8.65254 7.16748 8.65254 7.62498C8.65254 8.08248 8.99754 8.45748 9.41754 8.45748C9.84504 8.45748 10.1825 8.08248 10.1825 7.62498C10.1825 7.16748 9.84504 6.79248 9.41754 6.79248Z" fill="white"/>
<path id="Vector_2" d="M13.0626 0.5H3.0126C2.1651 0.5 1.4751 1.19 1.4751 2.045V12.185C1.4751 13.04 2.1651 13.73 3.0126 13.73H11.5176L11.1201 12.3425L12.0801 13.235L12.9876 14.075L14.6001 15.5V2.045C14.6001 1.19 13.9101 0.5 13.0626 0.5ZM10.1676 10.295C10.1676 10.295 9.8976 9.9725 9.6726 9.6875C10.6551 9.41 11.0301 8.795 11.0301 8.795C10.7226 8.9975 10.4301 9.14 10.1676 9.2375C9.7926 9.395 9.4326 9.5 9.0801 9.56C8.3601 9.695 7.7001 9.6575 7.1376 9.5525C6.7101 9.47 6.3426 9.35 6.0351 9.23C5.8626 9.1625 5.6751 9.08 5.4876 8.975C5.4651 8.96 5.4426 8.9525 5.4201 8.9375C5.4051 8.93 5.3976 8.9225 5.3901 8.915C5.2551 8.84 5.1801 8.7875 5.1801 8.7875C5.1801 8.7875 5.5401 9.3875 6.4926 9.6725C6.2676 9.9575 5.9901 10.295 5.9901 10.295C4.3326 10.2425 3.7026 9.155 3.7026 9.155C3.7026 6.74 4.7826 4.7825 4.7826 4.7825C5.8626 3.9725 6.8901 3.995 6.8901 3.995L6.9651 4.085C5.6151 4.475 4.9926 5.0675 4.9926 5.0675C4.9926 5.0675 5.1576 4.9775 5.4351 4.85C6.2376 4.4975 6.8751 4.4 7.1376 4.3775C7.1826 4.37 7.2201 4.3625 7.2651 4.3625C7.7226 4.3025 8.2401 4.2875 8.7801 4.3475C9.4926 4.43 10.2576 4.64 11.0376 5.0675C11.0376 5.0675 10.4451 4.505 9.1701 4.115L9.2751 3.995C9.2751 3.995 10.3026 3.9725 11.3826 4.7825C11.3826 4.7825 12.4626 6.74 12.4626 9.155C12.4626 9.155 11.8251 10.2425 10.1676 10.295Z" fill="white"/>
</g>
</g>
</svg>
