<svg width="16" height="16" viewBox="0 0 16 16" fill="none" xmlns="http://www.w3.org/2000/svg">
<g id="Telegram - Negative" clip-path="url(#clip0_1_3841)">
<path id="Subtract" fill-rule="evenodd" clip-rule="evenodd" d="M15.5 8C15.5 12.1421 12.1421 15.5 8 15.5C3.85786 15.5 0.5 12.1421 0.5 8C0.5 3.85786 3.85786 0.5 8 0.5C12.1421 0.5 15.5 3.85786 15.5 8ZM8.26877 6.03683C7.53928 6.34025 6.08134 6.96825 3.89493 7.92083C3.5399 8.06201 3.35391 8.20013 3.33698 8.33519C3.30837 8.56344 3.5942 8.65331 3.98342 8.7757C4.03637 8.79235 4.09122 8.8096 4.14746 8.82788C4.5304 8.95236 5.04552 9.09798 5.3133 9.10377C5.55621 9.10902 5.82733 9.00887 6.12665 8.80334C8.16947 7.42438 9.22399 6.72738 9.29019 6.71236C9.3369 6.70175 9.40162 6.68843 9.44548 6.7274C9.48933 6.76638 9.48502 6.8402 9.48038 6.86C9.45206 6.98071 8.33008 8.02381 7.74945 8.56361C7.56844 8.73189 7.44005 8.85126 7.4138 8.87852C7.355 8.93959 7.29508 8.99736 7.23749 9.05288C6.88173 9.39583 6.61494 9.65301 7.25226 10.073C7.55852 10.2748 7.8036 10.4417 8.0481 10.6082C8.31511 10.7901 8.58143 10.9714 8.92601 11.1973C9.0138 11.2548 9.09764 11.3146 9.1793 11.3728C9.49004 11.5944 9.76922 11.7934 10.1141 11.7616C10.3145 11.7432 10.5215 11.5548 10.6267 10.9927C10.8751 9.66446 11.3635 6.78653 11.4764 5.60061C11.4863 5.49671 11.4738 5.36373 11.4638 5.30536C11.4539 5.24699 11.433 5.16382 11.3571 5.10225C11.2672 5.02934 11.1285 5.01396 11.0665 5.01505C10.7844 5.02002 10.3516 5.17051 8.26877 6.03683Z" fill="white"/>
</g>
<defs>
<clipPath id="clip0_1_3841">
<rect width="15" height="15" fill="white" transform="translate(0.5 0.5)"/>
</clipPath>
</defs>
</svg>
