<svg width="16" height="16" viewBox="0 0 16 16" fill="none" xmlns="http://www.w3.org/2000/svg">
<g id="Twitter - Negative" clip-path="url(#clip0_1_3825)">
<path id="Vector" d="M5.21885 14.0937C10.8778 14.0937 13.9739 9.40416 13.9739 5.33863C13.9739 5.2068 13.971 5.07203 13.9651 4.94019C14.5674 4.50463 15.0872 3.96513 15.5 3.34703C14.9391 3.59659 14.3435 3.75958 13.7337 3.83043C14.3758 3.44554 14.8566 2.84089 15.0869 2.12857C14.4828 2.48657 13.8222 2.7391 13.1334 2.87535C12.6693 2.38219 12.0556 2.05567 11.3873 1.94625C10.719 1.83684 10.0332 1.95063 9.43609 2.27003C8.83893 2.58943 8.36363 3.09666 8.08365 3.71329C7.80368 4.32992 7.73464 5.0216 7.88721 5.68141C6.66406 5.62003 5.46746 5.30228 4.37499 4.74878C3.28252 4.19528 2.31856 3.41837 1.54561 2.46842C1.15275 3.14575 1.03254 3.94725 1.20939 4.71003C1.38625 5.4728 1.84691 6.13962 2.49775 6.57496C2.00914 6.55945 1.53123 6.42789 1.10352 6.19117V6.22926C1.10308 6.94006 1.34881 7.62909 1.79894 8.1792C2.24908 8.72931 2.87583 9.10657 3.57266 9.24683C3.12003 9.37067 2.64499 9.38872 2.18428 9.29957C2.38091 9.91087 2.76348 10.4455 3.27861 10.8289C3.79373 11.2123 4.4157 11.4253 5.05771 11.4382C3.96777 12.2944 2.62136 12.7588 1.23535 12.7566C0.989554 12.7562 0.743999 12.7412 0.5 12.7115C1.90804 13.6148 3.54596 14.0946 5.21885 14.0937Z" fill="white"/>
</g>
<defs>
<clipPath id="clip0_1_3825">
<rect width="15" height="15" fill="white" transform="translate(0.5 0.5)"/>
</clipPath>
</defs>
</svg>
